<?xml version="1.0" standalone="no"?>
<!DOCTYPE svg PUBLIC "-//W3C//DTD SVG 20010904//EN"
 "http://www.w3.org/TR/2001/REC-SVG-20010904/DTD/svg10.dtd">
<svg version="1.0" xmlns="http://www.w3.org/2000/svg"
 width="500.000000pt" height="500.000000pt" viewBox="0 0 500.000000 500.000000"
 preserveAspectRatio="xMidYMid meet">
<metadata>
Created by potrace 1.11, written by Peter Selinger 2001-2013
</metadata>
<g transform="translate(0.000000,500.000000) scale(0.100000,-0.100000)"
fill="#000000" stroke="none">
<path d="M2678 4966 c-91 -45 -149 -95 -202 -174 -63 -92 -88 -167 -94 -277
-5 -103 12 -185 55 -275 34 -72 159 -196 233 -232 156 -77 334 -77 490 0 74
36 199 160 233 232 136 283 20 611 -261 736 -48 22 -66 24 -220 24 l-167 0
-67 -34z"/>
<path d="M1697 4425 c-83 -23 -158 -66 -216 -124 -302 -304 -90 -814 339 -813
136 1 244 47 336 144 103 109 139 206 132 359 -4 86 -9 106 -41 174 -62 129
-176 224 -312 260 -71 18 -172 18 -238 0z"/>
<path d="M3546 4184 c-102 -28 -170 -56 -181 -75 -5 -7 -9 -95 -9 -195 -1
-212 -6 -208 95 -67 65 89 98 115 172 134 46 11 63 8 333 -57 239 -58 284 -71
284 -86 0 -10 -7 -18 -15 -18 -20 0 -199 39 -388 84 -81 20 -160 36 -175 36
-42 -1 -107 -35 -135 -72 -63 -83 -57 -181 17 -254 40 -41 44 -42 251 -92 379
-92 568 -118 663 -93 83 23 151 111 152 197 0 55 -43 137 -93 178 -55 44 -177
113 -321 181 -196 94 -480 212 -522 218 -26 4 -68 -2 -128 -19z"/>
<path d="M2739 3859 c-33 -34 -58 -75 -89 -146 -23 -54 -61 -139 -85 -189
l-43 -92 47 -46 46 -45 100 20 c127 26 277 85 382 149 45 28 85 54 87 59 3 5
-31 82 -77 171 l-82 162 -120 2 -120 2 -46 -47z"/>
<path d="M3354 3655 c-102 -104 -200 -174 -339 -241 -199 -96 -406 -138 -652
-132 -120 3 -134 1 -159 -18 -47 -35 -66 -68 -66 -118 -1 -50 17 -84 64 -119
35 -26 157 -39 293 -31 317 18 602 109 841 270 79 53 274 226 274 244 0 4 -14
13 -31 21 -69 28 -124 96 -137 167 l-7 40 -81 -83z"/>
<path d="M2174 3501 c-51 -13 -133 -63 -169 -103 -43 -47 -79 -118 -99 -194
-16 -62 -71 -473 -64 -480 2 -2 22 1 44 7 63 18 150 5 198 -28 67 -47 99 -103
104 -177 5 -79 -10 -127 -56 -178 -48 -53 -76 -66 -227 -103 l-130 -32 -7 -40
c-3 -21 -26 -83 -50 -136 l-43 -96 -116 -79 c-257 -173 -452 -335 -690 -572
-97 -96 -222 -229 -279 -295 -101 -118 -328 -414 -364 -475 l-18 -32 58 7
c659 75 1264 242 1649 456 163 90 251 157 429 328 171 162 283 253 359 290 26
12 94 36 151 52 58 16 131 40 163 54 l57 26 -99 56 c-123 70 -311 152 -430
188 -49 15 -100 30 -111 35 -46 18 -38 137 26 384 16 65 30 119 30 122 0 2 10
4 23 4 69 1 166 86 201 176 21 54 34 269 18 292 -7 11 -25 11 -96 2 -126 -17
-402 -9 -442 12 -139 75 -139 273 1 342 35 18 58 20 198 17 156 -2 158 -2 148
18 -17 31 -134 110 -193 131 -66 23 -134 31 -174 21z"/>
<path d="M3579 3409 c-156 -158 -364 -290 -576 -364 l-81 -29 -12 -81 c-15
-105 -32 -173 -82 -325 -39 -120 -45 -130 -137 -249 -219 -284 -250 -326 -243
-332 4 -4 34 -14 67 -24 81 -23 290 -108 397 -161 48 -24 91 -44 95 -44 5 1
80 95 168 210 88 115 162 209 165 209 3 1 22 -68 42 -152 166 -680 534 -1382
1028 -1959 l92 -108 198 0 198 0 30 34 c47 54 75 139 69 213 -6 83 -31 130
-128 243 -475 555 -830 1263 -945 1885 -18 103 -18 111 30 340 49 235 66 373
66 552 0 150 0 153 -22 158 -13 2 -90 20 -172 40 -81 19 -151 34 -155 34 -3
-1 -45 -41 -92 -90z"/>
<path d="M1894 2684 c-151 -31 -221 -55 -235 -81 -34 -63 -9 -253 42 -317 27
-34 46 -33 206 8 150 39 174 52 207 110 47 81 42 156 -16 222 -55 62 -109 78
-204 58z"/>
<path d="M3042 1634 c-29 -13 -108 -40 -175 -60 -67 -19 -143 -47 -169 -62
-49 -27 -220 -163 -214 -170 2 -1 73 -23 157 -48 85 -24 157 -45 162 -47 4 -1
-31 -65 -79 -142 -519 -842 -505 -815 -483 -915 37 -173 254 -247 387 -132 26
23 654 1030 750 1203 37 67 46 113 32 176 -23 100 -86 158 -215 193 -43 12
-84 24 -90 25 -5 2 -34 -8 -63 -21z"/>
<path d="M2340 1207 c-213 -208 -457 -353 -824 -487 l-131 -47 -99 -124 c-123
-155 -148 -205 -148 -300 0 -85 32 -158 92 -213 l40 -36 163 0 c130 0 167 3
185 15 12 9 75 84 140 168 196 252 776 999 806 1039 l27 37 -69 20 c-38 12
-73 21 -78 21 -5 0 -52 -42 -104 -93z"/>
<path d="M1060 584 c-188 -48 -481 -98 -815 -140 -51 -7 -184 -115 -217 -177
-33 -61 -32 -166 1 -224 l25 -43 186 0 185 0 345 286 c190 157 352 292 360
300 18 18 7 18 -70 -2z"/>
</g>
</svg>
